<mxfile host="app.diagrams.net" modified="2024-03-14T04:17:57.808Z" agent="Mozilla/5.0 (Windows NT 10.0; Win64; x64) AppleWebKit/537.36 (KHTML, like Gecko) Chrome/122.0.0.0 Safari/537.36" version="24.0.6" etag="bf--p55y_2gaYxlAYuKj" type="github">
  <diagram name="Page-1" id="BFz2ClelhkV7oylN4G_F">
    <mxGraphModel>
      <root>
        <mxCell id="0" />
        <mxCell id="1" parent="0" />
      </root>
    </mxGraphModel>
  </diagram>
</mxfile>
